<?xml version="1.0" encoding="UTF-8" standalone="no"?>
<!-- Generator: Adobe Illustrator 16.0.0, SVG Export Plug-In . SVG Version: 6.00 Build 0)  -->

<svg
   xmlns:dc="http://purl.org/dc/elements/1.1/"
   xmlns:cc="http://creativecommons.org/ns#"
   xmlns:rdf="http://www.w3.org/1999/02/22-rdf-syntax-ns#"
   xmlns:svg="http://www.w3.org/2000/svg"
   xmlns="http://www.w3.org/2000/svg"
   xmlns:sodipodi="http://sodipodi.sourceforge.net/DTD/sodipodi-0.dtd"
   xmlns:inkscape="http://www.inkscape.org/namespaces/inkscape"
   version="1.1"
   id="YouTube_Icon"
   x="0px"
   y="0px"
   width="1024px"
   height="721px"
   viewBox="0 0 1024 721"
   enable-background="new 0 0 1024 721"
   xml:space="preserve"
   inkscape:version="0.91 r13725"
   sodipodi:docname="youtube.svg"><metadata
     id="metadata19"><rdf:RDF><cc:Work
         rdf:about=""><dc:format>image/svg+xml</dc:format><dc:type
           rdf:resource="http://purl.org/dc/dcmitype/StillImage" /></cc:Work></rdf:RDF></metadata><defs
     id="defs17" /><sodipodi:namedview
     pagecolor="#ffffff"
     bordercolor="#666666"
     borderopacity="1"
     objecttolerance="10"
     gridtolerance="10"
     guidetolerance="10"
     inkscape:pageopacity="0"
     inkscape:pageshadow="2"
     inkscape:window-width="640"
     inkscape:window-height="480"
     id="namedview15"
     showgrid="false"
     inkscape:zoom="0.32732316"
     inkscape:cx="372.74646"
     inkscape:cy="355.84839"
     inkscape:window-x="534"
     inkscape:window-y="122"
     inkscape:window-maximized="0"
     inkscape:current-layer="YouTube_Icon" /><path
     id="The_Sharpness"
     opacity="0.12"
     fill-rule="evenodd"
     clip-rule="evenodd"
     fill="#420000"
     d="M407,206l242.042,161.625  L683,350L407,206z" /><g
     id="Lozenge"
     style="fill:#4d4d4d"><g
       id="g6"
       style="fill:#4d4d4d"><linearGradient
         id="SVGID_1_"
         gradientUnits="userSpaceOnUse"
         x1="512.499"
         y1="1.2959"
         x2="512.499"
         y2="719.7192"><stop
           offset="0"
           style="stop-color:#E52D27"
           id="stop9" /><stop
           offset="1"
           style="stop-color:#BF171D"
           id="stop11" /></linearGradient><path
         d="M1013.023,156.281c0,0-9.981-70.389-40.606-101.386c-38.842-40.684-82.38-40.885-102.346-43.267    C727.134,1.296,512.721,1.296,512.721,1.296h-0.444c0,0-214.408,0-357.35,10.333c-19.967,2.381-63.49,2.583-102.346,43.267    C21.956,85.892,11.99,156.281,11.99,156.281S1.775,238.94,1.775,321.6v77.493c0,82.658,10.215,165.317,10.215,165.317    s9.966,70.39,40.591,101.387c38.856,40.684,89.896,39.397,112.629,43.661c81.718,7.836,347.29,10.261,347.29,10.261    s214.634-0.323,357.571-10.655c19.966-2.382,63.504-2.583,102.346-43.267c30.625-30.997,40.606-101.387,40.606-101.387    s10.2-82.659,10.2-165.317V321.6C1023.224,238.94,1013.023,156.281,1013.023,156.281z M407.047,493L407,206l276,144L407.047,493z"
         id="path13"
         fill="url(#SVGID_1_)"
         style="fill:#4d4d4d" /></g></g></svg>